<svg width="28" height="28" viewBox="0 0 28 28" fill="none" xmlns="http://www.w3.org/2000/svg">
<path d="M14 0C6.27537 0 0 6.27537 0 14C0 21.7246 6.27537 28 14 28C21.7246 28 28 21.7246 28 14C28 6.27537 21.7246 0 14 0ZM14 1.21739C21.0667 1.21739 26.7826 6.93333 26.7826 14C26.7826 21.0667 21.0667 26.7826 14 26.7826C6.93333 26.7826 1.21739 21.0667 1.21739 14C1.21739 6.93333 6.93333 1.21739 14 1.21739ZM20.0798 7.90591C19.9809 7.90786 19.884 7.93389 19.7974 7.98174C19.7108 8.02959 19.6372 8.09783 19.5829 8.18054L13.3735 17.3336L8.93546 13.2154C8.87716 13.1593 8.80827 13.1153 8.73281 13.0862C8.65734 13.057 8.57682 13.0432 8.49595 13.0455C8.41508 13.0478 8.33548 13.0662 8.26181 13.0997C8.18814 13.1331 8.12187 13.1809 8.06687 13.2402C8.01188 13.2996 7.96927 13.3693 7.94152 13.4453C7.91378 13.5213 7.90146 13.602 7.90529 13.6828C7.90912 13.7636 7.92903 13.8429 7.96383 13.9159C7.99864 13.989 8.04766 14.0543 8.10802 14.1082L13.5839 19.1894L20.591 8.86294C20.6553 8.77085 20.6928 8.66277 20.6995 8.55066C20.7062 8.43855 20.6817 8.32679 20.6288 8.22773C20.5759 8.12867 20.4966 8.04618 20.3997 7.98938C20.3028 7.93258 20.1921 7.9037 20.0798 7.90591Z" fill="#9D9C9C"/>
</svg>
