<svg width="30" height="22" viewBox="0 0 30 22" fill="none" xmlns="http://www.w3.org/2000/svg">
<path d="M26.25 0H3.75C1.67906 0 0 1.64175 0 3.66667V18.3333C0 20.3582 1.67906 22 3.75 22H26.25C28.3209 22 30 20.3582 30 18.3333V3.66667C30 1.64175 28.3209 0 26.25 0ZM20.0775 9.78433L28.0151 3.13311C28.0701 3.30498 28.125 3.47686 28.125 3.66667V18.3333C28.125 18.4605 28.0755 18.5733 28.0499 18.6932L20.0775 9.78433ZM26.25 1.83333C26.3745 1.83333 26.4844 1.87991 26.6016 1.90317L15 11.6267L3.39844 1.90317C3.51562 1.87991 3.62549 1.83333 3.75 1.83333H26.25ZM1.94918 18.6914C1.92352 18.5714 1.875 18.4605 1.875 18.3333V3.66667C1.875 3.47686 1.93084 3.30498 1.9858 3.13311L9.92068 9.78255L1.94918 18.6914ZM3.75 20.1667C3.56051 20.1667 3.38836 20.1129 3.21533 20.061L11.3452 10.9767L14.3903 13.5279C14.5651 13.6766 14.783 13.75 15 13.75C15.217 13.75 15.4349 13.6766 15.6097 13.528L18.6548 10.9767L26.7847 20.0611C26.6126 20.1129 26.4404 20.1667 26.25 20.1667H3.75Z" fill="#F0EFE7"/>
</svg>
