<svg width="530" height="654" viewBox="0 0 530 654" fill="none" xmlns="http://www.w3.org/2000/svg">
<path d="M470.716 170.592C487.125 168.159 508.465 189.697 519.888 221.096C522.768 229.013 524.44 236.547 526.317 244.009C527.513 248.763 527.682 252.065 528.072 256.919C529.321 272.444 526.086 287.381 519.877 298.028C507.927 316.709 491.908 329.331 468.792 328.956C445.676 328.582 426.493 313.957 416.709 289.018C412.221 275.28 413.353 254.598 420.897 233.263C423.088 227.066 425.827 221.625 428.522 215.916C441.486 189.674 455.778 169.833 470.716 170.592Z" fill="#C71C5E"/>
<path d="M59.0055 163.667C75.7914 161.236 97.6303 182.815 109.327 214.268C112.276 222.2 113.99 229.746 115.912 237.22C117.137 241.983 117.311 245.29 117.712 250.152C118.995 265.702 115.691 280.661 109.343 291.323C97.1243 310.029 80.7403 322.666 57.0924 322.283C33.4446 321.9 13.8147 307.245 3.79639 282.262C-0.799464 268.501 0.351631 247.787 8.0613 226.421C10.3009 220.215 13.1007 214.766 15.8563 209.049C29.11 182.77 43.7239 162.902 59.0055 163.667Z" fill="#C71C5E"/>
<path d="M197.73 12.0318C218.131 12.3281 239.91 42.0915 247.746 81.6556C249.722 91.632 250.304 100.918 251.148 110.156C251.686 116.044 251.256 120.003 250.797 125.852C249.327 144.56 242.524 161.695 232.934 173.151C214.824 193.046 192.937 204.943 164.93 200.005C136.922 195.066 116.433 173.944 109.345 142.38C106.536 125.169 111.89 100.791 125.158 76.8845C129.011 69.9398 133.385 64.0014 137.757 57.7352C158.554 29.0451 179.731 8.22509 197.73 12.0318Z" fill="#C71C5E"/>
<path d="M340.904 14.354C320.504 13.989 297.772 43.0309 288.658 82.3203C286.36 92.2275 285.477 101.489 284.334 110.696C283.606 116.563 283.907 120.534 284.177 126.395C285.039 145.14 291.283 162.487 300.497 174.248C317.952 194.719 339.443 207.32 367.595 203.291C395.748 199.263 416.911 178.816 425.018 147.499C428.383 130.388 423.822 105.849 411.337 81.5247C407.71 74.4588 403.531 68.3817 399.364 61.9771C379.508 32.6281 359.017 11.1327 340.904 14.354Z" fill="#C71C5E"/>
<path d="M265.817 222.239C353.144 223.655 422.803 295.066 421.399 381.741C420.791 419.278 406.949 453.524 384.364 480.172L258.866 651.021L138.982 476.195C117.272 448.829 104.548 414.151 105.156 376.615C106.562 289.941 178.491 220.826 265.817 222.239ZM264.613 296.506C225.63 295.876 193.522 326.729 192.893 365.421C192.266 404.115 223.357 436.001 262.341 436.635C301.327 437.267 333.444 406.404 334.071 367.71C334.697 329.017 303.597 297.138 264.613 296.506Z" fill="#C71C5E"/>
</svg>
