<svg width="388" height="481" viewBox="0 0 388 481" fill="none" xmlns="http://www.w3.org/2000/svg">
<path d="M344.508 122.326C356.547 120.327 372.498 136.029 381.272 159.158C383.485 164.991 384.805 170.553 386.274 176.059C387.21 179.568 387.373 182.013 387.718 185.605C388.822 197.094 386.621 208.2 382.182 216.164C373.616 230.15 361.985 239.695 344.981 239.695C327.977 239.695 313.695 229.089 306.202 210.727C302.738 200.601 303.324 185.262 308.618 169.363C310.155 164.745 312.104 160.681 314.019 156.418C323.24 136.817 333.514 121.943 344.508 122.326Z" fill="#937315"/>
<path d="M41.6459 122.14C53.9616 120.137 70.2796 135.865 79.2563 159.031C81.5198 164.872 82.8701 170.443 84.3728 175.958C85.3304 179.473 85.4979 181.921 85.8509 185.519C86.9798 197.026 84.7279 208.15 80.1866 216.127C71.4239 230.135 59.5254 239.695 42.1298 239.695C24.7342 239.695 10.1233 229.072 2.45792 210.681C-1.08598 200.539 -0.486374 185.176 4.92876 169.252C6.50179 164.626 8.49589 160.555 10.4542 156.286C19.888 136.654 30.3985 121.757 41.6459 122.14Z" fill="#937315"/>
<path d="M141.859 8.11519C156.866 8.08975 173.238 29.8824 179.472 59.1047C181.043 66.4734 181.583 73.3469 182.313 80.1825C182.779 84.5386 182.51 87.4776 182.242 91.8172C181.384 105.697 176.585 118.476 169.669 127.08C156.588 142.039 140.634 151.118 119.978 147.794C99.3219 144.471 84.002 129.066 78.4132 105.763C76.1424 93.0438 79.7892 74.9159 89.2612 57.0418C92.0126 51.8496 95.1581 47.3968 98.2991 42.7011C113.251 21.1924 128.577 5.51066 141.859 8.11519Z" fill="#937315"/>
<path d="M247.179 8.11519C232.173 8.08975 215.801 29.8824 209.567 59.1047C207.995 66.4734 207.456 73.3469 206.725 80.1825C206.26 84.5386 206.528 87.4776 206.797 91.8172C207.654 105.697 212.453 118.476 219.369 127.08C232.45 142.039 248.405 151.118 269.061 147.794C289.717 144.471 305.037 129.066 310.625 105.763C312.896 93.0438 309.25 74.9159 299.778 57.0418C297.026 51.8496 293.881 47.3968 290.74 42.7011C275.788 21.1924 260.461 5.51066 247.179 8.11519Z" fill="#937315"/>
<path d="M194.44 163.057C258.679 163.057 310.754 215.136 310.754 279.378C310.754 307.2 300.985 332.738 284.693 352.755L194.44 480.862L104.185 352.755C87.893 332.738 78.1244 307.199 78.1243 279.378C78.1243 215.136 130.201 163.057 194.44 163.057ZM194.44 218.102C165.762 218.102 142.513 241.351 142.513 270.031C142.513 298.71 165.762 321.959 194.44 321.959C223.118 321.959 246.365 298.71 246.365 270.031C246.365 241.351 223.118 218.102 194.44 218.102Z" fill="#937315"/>
</svg>
